Moon *2009*[BluRay][1080p][ENG, POL]

General information:
Country: UJ
Release: 23 January 2009 (Sundance Film Festival)
Genre: Drama, Mystery, Sci-Fi 
Director: Duncan Jones
Screenplay: Nathan Parker, Duncan Jones (original story), 
Original Music: Clint Mansell
Cinematography by: Gary Shaw 
Duration: 1h 37mn
Language: English, Polish
Subtitles: English, Polish
Rating: 7.7/10 - 9848 votes 

Cast:
Sam Rockwell  ...  Sam Bell  
Kevin Spacey  ...  GERTY (voice)  
Dominique McElligott  ...  Tess Bell  
Rosie Shaw  ...  Little Eve  
Adrienne Shaw  ...  Nanny  
Kaya Scodelario  ...  Eve  
Benedict Wong  ...  Thompson  
Matt Berry  ...  Overmeyers  
Malcolm Stewart  ...  Technician  
Robin Chalk  ...  Sam Bell Clone  

Plot:
Astronaut Sam Bell has a quintessentially personal encounter toward the end of his three-year stint on the Moon, where he, working alongside his computer, GERTY, sends back to Earth parcels of a resource that has helped diminish our planet's power problems. 

Specifications:
General
Format                           : Matroska
Overall bit rate                 : 10.9 Mbps

Video
Format                           : AVC
Format/Info                      : Advanced Video Codec
Format profile                   : High@L4.0
Format settings, CABAC           : Yes
Format settings, ReFrames        : 3 frames
Format settings, GOP             : M=4, N=16
Muxing mode                      : Container profile=Unknown@4.0
Codec ID                         : V_MPEG4/ISO/AVC
Bit rate                         : 8 992 Kbps
Width                            : 1 920 pixels
Height                           : 1 080 pixels
Display aspect ratio             : 16:9
Frame rate                       : 23.976 fps

Audio 1
Format                           : DTS
Format/Info                      : Digital Theater Systems
Codec ID                         : A_DTS
Bit rate mode                    : Constant
Bit rate                         : 1 510 Kbps
Channel(s)                       : 6 channels
Channel positions                : Front: L C R, Side: L R, LFE
Sampling rate                    : 48.0 KHz
Bit depth                        : 24 bits
Stream size                      : 1.02 GiB (14%)
Title                            : English

Audio 2
Format                           : AC-3
Format/Info                      : Audio Coding 3
Mode extension                   : CM (complete main)
Codec ID                         : A_AC3
Bit rate mode                    : Constant
Bit rate                         : 448 Kbps
Channel(s)                       : 6 channels
Channel positions                : Front: L C R, Side: L R, LFE
Sampling rate                    : 48.0 KHz
Stream size                      : 311 MiB (4%)
Title                            : Polish
Language                         : Polish

Text 1
Format                           : UTF-8
Codec ID                         : S_TEXT/UTF8
Codec ID/Info                    : UTF-8 Plain Text
Title                            : English

Text 2
Format                           : UTF-8
Codec ID                         : S_TEXT/UTF8
Codec ID/Info                    : UTF-8 Plain Text
Title                            : Polish
Language                         : Polish
